<svg width="28" height="28" xmlns="http://www.w3.org/2000/svg" data-name="Layer 1">

 <title>messenger-chat-bubble</title>
 <g>
  <title>Layer 1</title>
  <path stroke="#000" style="vector-effect: non-scaling-stroke;" id="svg_1" fill-rule="evenodd" d="m1.13162,0.14409l25.80409,0a0.84791,0.92151 0 0 1 0.84343,0.91665l0,18.76335a0.84791,0.92151 0 0 1 -0.84343,0.91908l-12.90204,0l-6.51031,5.25675c-2.14997,2.2199 -3.59745,2.78399 -3.38939,-0.24314l0,-5.01361l-3.00235,0a0.84791,0.92151 0 0 1 -0.84343,-0.91908l0,-18.76335a0.84791,0.92151 0 0 1 0.84343,-0.91665zm13.23315,8.34953a1.5929,1.73118 0 1 1 -1.5929,1.72875a1.59066,1.72875 0 0 1 1.5929,-1.72875zm6.083,0a1.5929,1.73118 0 1 1 -1.59066,1.72875a1.59066,1.72875 0 0 1 1.59066,-1.72875zm-12.16824,0a1.5929,1.73118 0 1 1 -1.59066,1.72875a1.59066,1.72875 0 0 1 1.59066,-1.72875z" class="cls-1"/>
 </g>
</svg>