<svg width="105" height="66" xmlns="http://www.w3.org/2000/svg" stroke="null" style="vector-effect: non-scaling-stroke;" preserveAspectRatio="xMidYMid meet" version="1.0">

 <g stroke="null">
  <title stroke="null">Layer 1</title>
  <g stroke="null" id="svg_1" fill="#000000" transform="rotate(0.0240371 27.4356 31.7556) translate(0 344) scale(0.1 -0.1)">
   <path stroke="null" id="svg_2" d="m265.01657,3431.51801c-3.99697,-2.72792 -4.1873,-3.81909 -4.1873,-31.46204c0,-26.18805 0.38066,-28.91598 3.80664,-32.55321c2.28398,-2.3642 6.28095,-4.00095 9.32626,-4.00095c8.18427,0 9.70692,5.45584 9.70692,37.28161c0,22.91455 -0.571,28.37039 -3.04531,30.73459c-3.80664,3.63723 -10.08758,3.63723 -15.6072,0zm13.70389,-1.81861c3.99697,-3.81909 4.37763,-56.1952 0.38066,-61.10546c-3.42597,-4.36468 -7.8036,-4.18281 -12.5619,0.72745c-3.42597,3.63723 -3.80664,6.36515 -3.80664,30.73459c0,25.64247 0.19033,27.09736 4.1873,29.64342c5.32929,3.63723 8.18427,3.63723 11.80057,0z"/>
   <path stroke="null" id="svg_3" d="m403.57809,3411.33138c-6.47128,-6.91074 -36.16303,-48.92074 -36.16303,-51.28494c0,-3.45537 5.70995,-7.27446 10.84891,-7.45632c3.04531,0 7.99393,5.27398 20.55583,21.64152c8.94559,12.00286 17.51052,22.73269 19.03318,23.82385c1.52265,1.27303 2.85498,4.7284 2.85498,7.45632c0,4.00095 -1.14199,5.81957 -4.94863,7.0926c-6.47128,2.3642 -8.75526,2.18234 -12.18123,-1.27303zm10.27792,-0.54558c2.66464,-0.90931 4.94863,-3.09165 4.94863,-4.7284c0,-4.00095 -34.45005,-49.46632 -38.44702,-50.73936c-3.99697,-1.27303 -11.03924,2.00048 -11.03924,5.09212c0,2.72792 31.7854,46.7384 35.9727,49.83005c3.80664,2.72792 2.85498,2.72792 8.56493,0.54558z"/>
   <path stroke="null" id="svg_4" d="m125.69372,3409.14904c-2.28398,-4.36468 -2.47431,-8.72935 -0.38066,-9.63866c0.95166,-0.18186 9.51659,-10.91169 19.22351,-23.64199c19.03318,-24.91502 22.64948,-27.27922 30.64341,-19.64104c4.56796,4.36468 4.75829,6.54701 1.14199,10.18424c-1.52265,1.45489 -10.27792,12.36658 -19.41384,24.36944c-15.41687,20.18663 -17.12986,21.82338 -23.03014,21.82338c-4.1873,0 -6.85194,-1.09117 -8.18427,-3.45537zm32.73706,-22.55082c16.55886,-21.64152 18.08152,-24.36944 15.98787,-27.64295c-1.33232,-2.00048 -4.56796,-3.81909 -7.04228,-4.18281c-3.99697,-0.36372 -7.42294,3.09165 -23.22047,24.00572c-16.1782,21.27779 -18.27185,25.09689 -16.55886,28.37039c1.33232,2.3642 3.99697,3.63723 7.23261,3.63723c4.37763,-0.18186 7.8036,-3.63723 23.60114,-24.18758z"/>
   <path stroke="null" id="svg_5" d="m242.74775,3326.94765c-30.07242,-3.81909 -64.52247,-16.36753 -91.35925,-33.46251c-39.39867,-24.91502 -73.27773,-68.19806 -86.02996,-109.48062l-3.42597,-11.45727l-8.18427,0c-8.75526,0 -14.08455,-2.18234 -27.78844,-10.91169c-17.70085,-11.45727 -23.03014,-22.00524 -21.69782,-42.55559c1.90332,-26.9155 20.17517,-45.28351 47.9636,-48.19329l9.51659,-1.09117l6.85194,-17.4587c14.08455,-35.64485 35.9727,-64.92455 66.42578,-89.11213c25.31412,-20.18663 24.74313,-19.8229 26.83678,-19.8229c3.04531,0 25.50446,-11.09355 27.02711,-13.45775c0.76133,-1.09117 2.09365,-2.00048 2.85498,-2.00048c4.1873,-0.18186 19.60417,-5.27398 19.60417,-6.54701c0,-0.72745 -6.47128,-6.00143 -14.27488,-11.63914c-26.26578,-18.91359 -39.96967,-36.91788 -48.72493,-63.65152c-4.75829,-14.36706 -4.56796,-22.1871 0.76133,-29.46156l4.1873,-6.00143l121.051,0l120.86067,0l3.42597,12.7303c4.94863,18.36801 1.33232,32.18948 -13.32322,49.83005c-20.93649,25.09689 -26.45611,30.55273 -38.82768,38.91836l-13.51356,9.09307l7.23261,2.18234c9.70692,3.09165 40.731,18.91359 54.81555,27.82481c6.28095,4.18281 14.65555,9.4568 18.46218,12.00286c19.7945,12.36658 52.7219,60.19615 64.33214,93.4768l4.37763,12.18472l7.8036,0c15.79754,0 37.11469,13.82147 47.77327,31.09831c8.56493,14.1852 9.13592,26.9155 1.71299,40.73697c-9.32626,17.4587 -30.83375,31.82576 -47.77327,31.82576l-9.13592,0l-3.42597,11.45727c-9.13592,29.2797 -28.93043,60.37801 -54.05422,84.20187c-13.89422,13.27589 -15.22654,15.0945 -12.5619,17.64056c4.56796,4.36468 1.33232,9.09307 -10.46825,14.91264c-9.13592,4.7284 -11.80057,7.27446 -16.55886,16.00381c-7.23261,13.27589 -12.18123,13.82147 -19.60417,2.54606l-5.13896,-7.82004l-18.84284,6.00143c-31.59507,10.3661 -65.28379,13.45775 -99.16285,9.4568zm141.03584,-12.00286c4.56796,-8.54749 7.23261,-11.09355 15.98787,-15.64009c5.70995,-3.09165 11.03924,-6.36515 11.80057,-7.27446c1.90332,-2.90978 -0.38066,-6.72888 -3.99697,-6.72888c-6.47128,0 -20.55583,-12.54844 -24.5528,-21.82338c-4.75829,-10.91169 -9.13592,-10.72983 -15.79754,0.54558c-5.32929,9.09307 -9.51659,12.91217 -20.3655,17.82243c-4.37763,2.18234 -8.56493,4.7284 -9.13592,5.63771c-1.52265,2.18234 7.42294,9.82052 15.79754,13.45775c3.99697,1.63675 7.61327,5.27398 10.27792,10.3661c4.75829,9.09307 9.13592,14.00333 12.18123,14.00333c1.33232,0 4.75829,-4.54654 7.8036,-10.3661zm-83.74598,6.54701c14.65555,-2.00048 41.11166,-8.54749 52.53157,-13.27589l6.28095,-2.54606l-5.32929,-2.00048c-7.99393,-3.09165 -18.46218,-11.63914 -18.46218,-15.0945c0,-2.00048 3.6163,-4.91026 9.13592,-7.82004c11.80057,-6.00143 15.79754,-9.4568 21.31716,-18.54987c2.47431,-4.36468 5.70995,-7.82004 7.04228,-7.82004c3.04531,0 3.04531,-3.63723 -0.38066,-17.27684c-6.66161,-26.18805 -3.42597,-30.73459 31.02408,-44.73793c42.82465,-17.27684 43.20531,-17.82243 43.01498,-60.74174c-0.19033,-24.91502 -0.95166,-34.37182 -4.37763,-49.1026c-8.3746,-35.64485 -7.23261,-46.37468 6.66161,-56.92265c7.04228,-5.27398 7.23261,-4.91026 -7.99393,-24.00572c-28.1691,-35.64485 -68.13877,-61.10546 -114.96038,-73.29018c-84.69763,-22.1871 -179.86352,12.36658 -229.15944,83.1107l-6.28095,9.09307l7.04228,4.91026c11.61024,8.00191 16.1782,24.18758 11.41991,39.82767c-5.13896,16.36753 -7.99393,35.82671 -8.94559,60.9236c-1.71299,44.73793 0.19033,47.82957 41.30199,65.47014c15.22654,6.54701 29.12076,13.63961 31.02408,15.64009c4.94863,6.00143 5.90028,12.36658 3.42597,23.46013c-4.75829,20.73221 -6.09062,34.18996 -4.94863,48.73888c0.571,8.36563 1.71299,16.36753 2.28398,17.82243c2.47431,6.36515 38.06635,18.91359 66.04512,23.27827c19.22351,3.09165 42.25365,3.45537 61.28683,0.90931zm-239.81802,-155.67343c-5.70995,-26.73364 -6.28095,-47.64771 -2.09365,-74.01763c1.52265,-10.00238 2.85498,-18.36801 2.85498,-18.73173c0,-2.18234 -15.03621,0.18186 -24.17213,4.00095c-18.65251,7.82004 -31.02408,26.00619 -31.02408,45.28351c0,17.64056 5.70995,26.73364 24.74313,39.10022c12.75223,8.36563 14.27488,8.91121 23.41081,9.09307c7.04228,0.18186 7.23261,0 6.28095,-4.7284zm446.89898,1.09117c19.60417,-8.72935 32.73706,-25.27875 34.83071,-43.64676c0.95166,-9.63866 0.571,-11.09355 -5.70995,-21.09593c-8.18427,-12.7303 -12.18123,-16.5494 -26.83678,-24.91502c-8.18427,-4.7284 -13.70389,-6.54701 -19.22351,-6.54701l-7.99393,0l2.66464,11.45727c5.51962,24.00572 5.13896,61.10546 -0.76133,84.56559c-0.95166,3.63723 -0.38066,4.00095 6.85194,4.00095c4.37763,0 11.61024,-1.63675 16.1782,-3.81909zm-267.98712,-248.05907c24.17213,-3.45537 41.87299,-3.45537 66.99678,0.18186c16.7492,2.3642 20.93649,2.3642 24.93346,0.36372c2.66464,-1.27303 5.32929,-2.72792 5.90028,-3.27351c0.571,-0.54558 5.51962,-4.18281 11.03924,-8.00191c10.08758,-7.0926 32.73706,-30.91645 32.73706,-34.55368c0,-1.09117 1.71299,-3.09165 3.80664,-4.36468c2.09365,-1.27303 3.80664,-3.81909 3.80664,-6.00143c0,-2.00048 0.76133,-3.27351 1.52265,-2.72792c0.76133,0.36372 1.71299,-1.27303 1.90332,-3.63723c0.19033,-2.54606 1.71299,-6.91074 3.23564,-9.82052c1.71299,-3.09165 2.47431,-5.45584 1.71299,-5.45584c-0.76133,0 -0.19033,-1.09117 0.95166,-2.54606c2.47431,-2.90978 -0.19033,-16.18567 -3.99697,-20.73221c-1.52265,-1.63675 -28.1691,-2.18234 -121.622,-2.18234l-119.52835,0l-2.85498,4.00095c-5.13896,6.91074 -3.04531,19.09546 7.04228,41.64628c4.56796,9.82052 19.03318,27.46108 30.83375,36.91788c12.5619,10.3661 29.88209,22.91455 31.59507,22.91455c0.571,0 9.51659,-1.27303 19.98484,-2.72792z"/>
   <path stroke="null" id="svg_6" d="m169.47002,3118.17066c-0.95166,-2.00048 -1.90332,-8.36563 -1.90332,-14.36706c0,-13.27589 4.37763,-18.54987 12.94256,-15.64009c4.94863,1.63675 5.13896,2.3642 5.70995,15.0945c0.38066,8.18377 -0.38066,14.1852 -1.71299,15.82195c-3.23564,3.81909 -12.5619,3.27351 -15.03621,-0.90931z"/>
   <path stroke="null" id="svg_7" d="m357.89847,3118.17066c-0.95166,-2.00048 -1.90332,-8.54749 -1.90332,-14.54892c0,-11.45727 2.85498,-16.5494 9.51659,-16.5494c6.66161,0 9.51659,5.09212 9.51659,16.5494c0,13.82147 -2.28398,18.00429 -9.51659,18.00429c-3.6163,0 -6.28095,-1.27303 -7.61327,-3.45537z"/>
   <path stroke="null" id="svg_8" d="m241.41543,3095.98356c-3.99697,-2.18234 -4.56796,-10.72983 -1.14199,-14.00333c1.52265,-1.45489 11.22957,-2.18234 31.40474,-2.18234c28.93043,0 29.12076,0 32.16607,4.54654c2.85498,4.18281 2.85498,4.91026 0,9.09307c-3.04531,4.54654 -3.42597,4.54654 -31.21441,4.54654c-15.41687,0 -29.50142,-0.90931 -31.21441,-2.00048z"/>
  </g>
  <text xml:space="preserve" text-anchor="start" font-family="'Special Elite'" font-size="10" id="svg_21" y="28.5" x="57.83333" stroke-width="0" stroke="#000" fill="#000000">Calvicia</text>
  <text xml:space="preserve" text-anchor="start" font-family="'Special Elite'" font-size="10" id="svg_22" y="39.5" x="69.83333" stroke-width="0" stroke="#000" fill="#000000">Connect</text>
 </g>
</svg>