<svg width="28" height="28" xmlns="http://www.w3.org/2000/svg" xml:space="preserve" version="1.1">

 <g>
  <title>Layer 1</title>
  <g stroke="null" id="svg_1">
   <path stroke="null" id="svg_2" d="m0,13.94c0,-3.81352 1.56099,-7.26726 4.08398,-9.76764c2.52073,-2.50037 6.00573,-4.04736 9.85602,-4.04736c3.84802,0 7.33529,1.54699 9.85602,4.04736c2.52299,2.50037 4.08398,5.95412 4.08398,9.76764s-1.56099,7.26951 -4.08398,9.76764c-2.52299,2.50037 -6.00799,4.04736 -9.85602,4.04736c-3.84802,0 -7.33529,-1.54699 -9.85602,-4.04736c-2.52299,-2.49812 -4.08398,-5.95187 -4.08398,-9.76764l0,0zm20.94176,0c0,0.89717 -0.73512,1.62344 -1.63813,1.62344s-1.63813,-0.72853 -1.63813,-1.62344c0,-0.89717 0.73285,-1.62569 1.63813,-1.62569s1.63813,0.72853 1.63813,1.62569l0,0l0,0zm-10.96096,0c0,0.89717 -0.73285,1.62344 -1.6404,1.62344c-0.90528,0 -1.63813,-0.72853 -1.63813,-1.62344c0,-0.89717 0.73285,-1.62569 1.63813,-1.62569s1.6404,0.72853 1.6404,1.62569l0,0l0,0zm5.48161,0c0,0.89717 -0.73512,1.62344 -1.63813,1.62344c-0.90528,0 -1.63813,-0.72853 -1.63813,-1.62344c0,-0.89717 0.73512,-1.62569 1.63813,-1.62569c0.90301,0.00225 1.63813,0.72853 1.63813,1.62569l0,0l0,0zm-9.74484,-8.14869c-2.10325,2.08664 -3.40332,4.96701 -3.40332,8.14869c0,3.18168 1.30234,6.06205 3.40559,8.14869c2.10325,2.08439 5.00969,3.37505 8.22242,3.37505s6.1169,-1.29066 8.22015,-3.37505c2.10325,-2.08439 3.40559,-4.96477 3.40559,-8.14869c0,-3.18168 -1.30234,-6.06205 -3.40559,-8.14644c-2.10552,-2.08664 -5.01196,-3.37505 -8.22242,-3.37505c-3.21047,0 -6.1169,1.28841 -8.22242,3.3728l0,0z"/>
  </g>
 </g>
</svg>