<svg width="28" height="28" xmlns="http://www.w3.org/2000/svg" xml:space="preserve" enable-background="new 0 0 96.165 122.88" version="1.1">

 <g>
  <title>Layer 1</title>
  <g stroke="#000" id="svg_1">
   <path stroke="#000" id="svg_2" d="m17.99436,24.61811l5.96637,-4.91835l-5.96637,0l0,4.91835l0,0zm-4.58783,-18.33765c0,-0.11198 0.05722,-0.21286 0.1511,-0.2865c0.09138,-0.07168 0.21971,-0.11634 0.36109,-0.11874l0.00444,0c0.14277,0 0.2711,0.04488 0.36387,0.11874c0.09277,0.07168 0.14971,0.17233 0.15249,0.28323l0,1.35753l1.72853,0.00109c0.14277,0 0.2711,0.04488 0.36387,0.11765c0.09305,0.07255 0.14999,0.17233 0.15277,0.28432l0,0.00327c0,0.11089 -0.05694,0.21177 -0.1511,0.28562c-0.09138,0.07168 -0.21999,0.11743 -0.36137,0.11852l-1.73241,0.00109l0,1.35426c0,0.11198 -0.05694,0.21264 -0.1511,0.2865c-0.09138,0.07168 -0.21971,0.11765 -0.36109,0.11874l-0.00417,0c-0.14138,0 -0.2711,-0.04488 -0.36387,-0.11765s-0.14999,-0.17342 -0.15138,-0.28432l-0.00139,-1.35753l-1.72825,0c-0.1411,0 -0.2711,-0.04597 -0.36387,-0.11874c-0.09277,-0.07255 -0.14999,-0.17342 -0.1511,-0.28432l0,-0.0024c-0.00139,-0.11198 0.05694,-0.21264 0.14971,-0.2865c0.09138,-0.07168 0.21999,-0.11743 0.36248,-0.11852l1.73103,-0.00109l0,-1.35426l-0.00028,0zm0.51664,-2.57562c0.35943,0 0.71358,0.02789 1.05439,0.08061c0.35109,0.0549 0.68913,0.13638 1.01301,0.24053c0.33109,0.10763 0.64525,0.23965 0.93773,0.39412c0.29526,0.15425 0.57081,0.33138 0.82024,0.52833c0.2511,0.19564 0.47692,0.41199 0.67386,0.64358c0.19527,0.22941 0.36387,0.47582 0.50081,0.73443c0.13416,0.25403 0.23832,0.52048 0.30665,0.79456c0.06861,0.26841 0.10444,0.5451 0.10444,0.82833c0,0.28214 -0.03583,0.5597 -0.10444,0.82724c-0.06833,0.27538 -0.17249,0.54184 -0.30665,0.79456l-0.00139,0.00349c-0.13694,0.25752 -0.30415,0.50262 -0.49803,0.73073c-0.19832,0.23268 -0.42498,0.44881 -0.67524,0.64467c-0.24943,0.19586 -0.52497,0.37277 -0.82024,0.52855c-0.29249,0.15316 -0.60664,0.28541 -0.93773,0.39281l-0.00278,0.00109c-0.32248,0.10414 -0.6608,0.18584 -1.01051,0.23965c-0.34109,0.05381 -0.69497,0.0817 -1.05439,0.0817c-0.36109,0 -0.71358,-0.02789 -1.05606,-0.0817c-0.3497,-0.05381 -0.68774,-0.13551 -1.01162,-0.24074c-0.33109,-0.10741 -0.64525,-0.23965 -0.93745,-0.39281c-0.29526,-0.15556 -0.57081,-0.33247 -0.82051,-0.52855c-0.24971,-0.19586 -0.47664,-0.41199 -0.67497,-0.64467c-0.19416,-0.22941 -0.36248,-0.4756 -0.49942,-0.73421c-0.13416,-0.25294 -0.23832,-0.51939 -0.30665,-0.79456c-0.06861,-0.26754 -0.10416,-0.5451 -0.10416,-0.82724c0,-0.28323 0.03583,-0.5597 0.10416,-0.82833c0.06861,-0.27429 0.17277,-0.54053 0.30665,-0.79456c0.13694,-0.25861 0.30526,-0.5048 0.50081,-0.73443c0.19693,-0.23159 0.42248,-0.44772 0.67358,-0.64358c0.24971,-0.19695 0.52525,-0.37386 0.82051,-0.52833c0.29249,-0.15447 0.60664,-0.2865 0.93745,-0.39412l0.00278,-0.00109c0.32248,-0.10414 0.6608,-0.18475 1.01023,-0.23965c0.34109,-0.05229 0.69385,-0.08039 1.05495,-0.08039l0,0zm2.99207,1.89719c-0.19527,-0.15425 -0.4122,-0.29325 -0.6433,-0.41395c-0.22832,-0.12092 -0.47387,-0.22397 -0.72913,-0.30676c-0.2511,-0.0817 -0.51664,-0.14554 -0.79218,-0.18802c-0.26693,-0.04031 -0.54386,-0.06275 -0.82774,-0.06275c-0.28387,0 -0.56081,0.02244 -0.82913,0.06275c-0.27388,0.04248 -0.53942,0.10632 -0.79079,0.18802c-0.25527,0.08279 -0.50081,0.18584 -0.72913,0.30676c-0.23138,0.1207 -0.44803,0.2597 -0.64358,0.41395c-0.19555,0.15338 -0.37387,0.32353 -0.52803,0.5048c-0.15416,0.17909 -0.28526,0.37146 -0.39109,0.5719c-0.10416,0.19695 -0.18416,0.40523 -0.23971,0.62114c-0.05139,0.20937 -0.08,0.42658 -0.08,0.64924c0,0.22179 0.02861,0.43878 0.08,0.64815c0.05555,0.21612 0.13555,0.42419 0.23971,0.62136c0.10555,0.20153 0.23693,0.39281 0.39109,0.5719c0.15416,0.18235 0.33248,0.35142 0.52803,0.5048c0.19555,0.15447 0.4122,0.29325 0.64358,0.41525c0.22832,0.11983 0.47387,0.22266 0.72913,0.30545c0.2511,0.0817 0.51664,0.14554 0.79079,0.18802c0.26832,0.04139 0.54497,0.06275 0.82913,0.06275c0.28387,0 0.56081,-0.02113 0.82913,-0.06275c0.27388,-0.04248 0.53942,-0.10632 0.79079,-0.18802l0.00278,-0.00087c0.25554,-0.08301 0.49803,-0.18475 0.72635,-0.30436c0.2311,-0.12201 0.44803,-0.26079 0.6433,-0.41525c0.19555,-0.15338 0.37415,-0.32223 0.52803,-0.5048c0.15416,-0.17909 0.28526,-0.37059 0.39081,-0.5719c0.10444,-0.19695 0.18416,-0.40523 0.23971,-0.62136c0.05139,-0.20937 0.08,-0.42637 0.08,-0.64815c0,-0.22266 -0.02889,-0.43987 -0.08,-0.64924c-0.05555,-0.21591 -0.13527,-0.42419 -0.23971,-0.62114c-0.10555,-0.20044 -0.23693,-0.39281 -0.39081,-0.5719c-0.15388,-0.18127 -0.33221,-0.35142 -0.52803,-0.50502l0,0zm-11.08917,14.59796l5.3414,0l0,1.20546l-5.3414,0l0,-1.20546l0,0zm0,-3.05907l7.58046,0l0,1.20437l-7.58046,0l0,-1.20437l0,0zm0,-3.05907l16.1942,0l0,1.20437l-16.1942,0l0,-1.20437l0,0zm21.45255,4.99003c0,0.35491 -0.30554,0.66275 -0.72219,0.75099l-8.78762,7.24756c-0.18388,0.178 -0.4622,0.28758 -0.76774,0.28758l-14.64844,0c-0.49636,0 -0.94051,-0.15795 -1.26299,-0.40959c-0.32221,-0.25294 -0.5222,-0.6024 -0.5222,-0.99064l0,-23.97103c0,-0.38933 0.19999,-0.73748 0.5222,-0.99064c0.32248,-0.25273 0.77496,-0.40959 1.26299,-0.40959l23.14108,0c0.48803,0 0.94023,0.15686 1.26272,0.40959c0.32248,0.25294 0.52247,0.60109 0.52247,0.99064l0,17.08513l-0.00028,0zm-1.99518,-0.93574l0,-15.98468l-22.7211,0l0,23.64859l13.43822,0l0,-6.87806c0,-0.43094 0.44387,-0.78563 1.00051,-0.78563l8.28237,0l0,-0.00022z"/>
  </g>
 </g>
</svg>