<svg width="25" height="25" xmlns="http://www.w3.org/2000/svg" data-name="Layer 1">

 <title>glass-zoom</title>
 <g>
  <title>Layer 1</title>
  <path stroke="#000" id="svg_1" fill-rule="evenodd" d="m8.61224,0.1875a8.44111,8.40623 0 0 1 7.02461,13.06334l1.70777,1.70072l0.01796,-0.01788a1.07334,1.06891 0 0 1 1.51425,0l5.49639,5.47369a1.07534,1.0709 0 0 1 0,1.508l-2.39407,2.38418a1.07534,1.0709 0 0 1 -1.51425,0l-5.48642,-5.48362a1.07334,1.06891 0 0 1 0,-1.508l0.01796,-0.01788l-1.70777,-1.70072a8.44111,8.40623 0 1 1 -4.67642,-15.40182zm0,1.88748a6.5458,6.51875 0 1 1 -6.5458,6.51875a6.5458,6.51875 0 0 1 6.5458,-6.51875z" class="cls-1"/>
 </g>
</svg>