<svg width="30" height="30" xmlns="http://www.w3.org/2000/svg" xml:space="preserve" enable-background="new 0 0 122.88 102.85" version="1.1">

 <g>
  <title>Layer 1</title>
  <g stroke="null" id="svg_1">
   <path stroke="null" id="svg_2" d="m29.67456,10.31037l0,8.19828c0,0.74577 -0.11187,1.44292 -0.33608,2.09175c-0.22397,0.6474 -0.55741,1.23503 -1.002,1.76405c-0.19253,0.2279 -0.39489,0.43208 -0.60639,0.61194c-0.21749,0.18473 -0.43979,0.34143 -0.66664,0.47011c-0.012,0.00686 -0.02425,0.01344 -0.03649,0.01916c-0.29047,0.16099 -0.59294,0.28195 -0.90718,0.36345c-0.32576,0.08436 -0.66328,0.12668 -1.01184,0.12668l-2.05105,0l-0.00408,0l-0.00408,0l-0.00432,0l-0.00408,0l-0.10947,0c0.04345,0.165 0.08882,0.32856 0.13587,0.4907c0.13323,0.45838 0.28327,0.9099 0.45011,1.35284l0.0024,0.00601l0.00024,-0.00029c0.15028,0.4092 0.35144,0.8081 0.6023,1.197c0.25854,0.40091 0.5747,0.79838 0.94703,1.19157c0.26622,0.28081 0.29119,0.76578 0.05545,1.08291c-0.16588,0.22333 -0.41674,0.30397 -0.64383,0.2342l0,0.00029c-0.80011,-0.24706 -1.55533,-0.55589 -2.26686,-0.92534c-0.71177,-0.36945 -1.38321,-0.80267 -2.0148,-1.29823l-0.0012,0.00229c-0.62727,-0.48869 -1.21445,-1.03887 -1.75986,-1.64938c-0.46211,-0.51758 -0.89397,-1.0789 -1.29439,-1.68484l-0.21797,0l-0.00408,0l-0.00408,0l-0.00432,0l-0.00408,0l-2.05081,0c-0.42706,0 -0.83588,-0.06348 -1.22621,-0.18902c-0.39081,-0.12582 -0.76338,-0.31712 -1.11675,-0.57276c-0.30391,-0.21933 -0.40114,-0.69058 -0.21725,-1.05288c0.18412,-0.3623 0.57974,-0.47783 0.88389,-0.2585c0.24222,0.175 0.5034,0.30797 0.78355,0.39833c0.27847,0.0895 0.57614,0.13497 0.89301,0.13497l2.05081,0l0.00408,0l0.00432,0l0.00408,0l0.00408,0l0.53341,0l0,0.00315c0.19541,0 0.38865,0.10609 0.51516,0.30654c0.4069,0.6474 0.85629,1.24618 1.34768,1.79607c0.48516,0.54303 1.01352,1.03715 1.58318,1.48095l-0.00144,0.00229l0.00144,0.00086c0.54109,0.42464 1.12155,0.80153 1.74138,1.12952c-0.11691,-0.23648 -0.21989,-0.47525 -0.30847,-0.71631l0.00024,0c-0.17668,-0.47011 -0.33968,-0.96166 -0.48828,-1.47295c-0.14139,-0.48612 -0.2679,-0.98568 -0.37977,-1.49697c-0.02497,-0.08207 -0.03865,-0.17071 -0.03865,-0.26308c0,-0.42521 0.28951,-0.76979 0.64624,-0.76979l0.96287,0l0.00408,0l0.00432,0l0.00408,0l0.00408,0l2.05105,0c0.25974,0 0.50604,-0.03003 0.7389,-0.09036c0.22157,-0.05719 0.43234,-0.14097 0.63183,-0.2505c0.0096,-0.00601 0.01944,-0.01201 0.02953,-0.01802c0.16852,-0.09551 0.32672,-0.20617 0.47483,-0.33171c0.15412,-0.13097 0.30271,-0.28052 0.44507,-0.44923c0.32168,-0.38318 0.56125,-0.80267 0.71897,-1.25848c0.157,-0.45409 0.23526,-0.95709 0.23526,-1.5084l0,-8.19828c0,-0.54817 -0.07826,-1.04916 -0.23526,-1.50268c-0.15772,-0.45524 -0.3973,-0.87473 -0.71897,-1.25791l0,0l-0.00264,-0.00286c-0.32168,-0.38346 -0.67384,-0.66856 -1.05577,-0.85643c-0.38073,-0.18701 -0.80131,-0.28023 -1.2615,-0.28023l-1.84892,0l-1.3472,0c-0.35697,0 -0.64648,-0.34486 -0.64648,-0.77007c0,-0.42521 0.28951,-0.77007 0.64648,-0.77007l1.3472,0l1.84892,0c0.62343,0 1.20701,0.13325 1.75122,0.40062c0.54157,0.26622 1.03441,0.66255 1.47756,1.19042l0.00144,0.00143l0.0012,0.00143l0.00048,0.00057c0.44291,0.52816 0.77539,1.11465 0.99888,1.75947c0.22349,0.6474 0.33536,1.34284 0.33536,2.08574l0,0zm-17.8783,-8.64523l-3.85653,0l-3.19637,0c-0.46019,0 -0.88077,0.09322 -1.2615,0.28023c-0.38217,0.18787 -0.73434,0.47325 -1.05601,0.85643l-0.0024,0.00315l0,0c-0.32192,0.38318 -0.56125,0.80267 -0.71897,1.25791c-0.157,0.45352 -0.23526,0.95451 -0.23526,1.50268l0,8.19828c0,0.5516 0.07826,1.05431 0.23526,1.50869c0.15772,0.4561 0.3973,0.87559 0.71897,1.25848c0.3236,0.38289 0.67744,0.66942 1.0613,0.85843c0.38025,0.18701 0.79987,0.28138 1.25862,0.28138l3.02977,0c0.35697,0 0.64648,0.34457 0.64648,0.76979c0,0.09236 -0.01368,0.18101 -0.03865,0.26308c-0.11163,0.511 -0.23838,1.01084 -0.37977,1.49697c-0.14884,0.51128 -0.31135,1.00312 -0.48828,1.47295l0,0c-0.08858,0.24106 -0.19133,0.47983 -0.30847,0.71631c0.62007,-0.32799 1.20029,-0.70487 1.74162,-1.12952l0.0012,-0.00086l-0.0012,-0.00229c0.56966,-0.4438 1.09778,-0.93764 1.58318,-1.48124c0.4914,-0.5496 0.94079,-1.14896 1.34768,-1.79579c0.12627,-0.20074 0.31952,-0.30654 0.51516,-0.30683l0,-0.00286l2.60054,0c0.45875,0 0.87837,-0.09436 1.25862,-0.28138c0.38385,-0.18902 0.7377,-0.47554 1.06154,-0.85843c0.32168,-0.38318 0.56125,-0.80267 0.71897,-1.25848c0.15676,-0.45438 0.23502,-0.95709 0.23502,-1.50869l0,-8.19828c0,-0.54817 -0.07826,-1.04916 -0.23502,-1.50268c-0.15772,-0.45524 -0.3973,-0.87473 -0.71897,-1.25791l-0.00264,-0.00315l0,0c-0.32192,-0.38318 -0.67384,-0.66856 -1.05601,-0.85643c-0.38073,-0.18701 -0.80131,-0.28023 -1.2615,-0.28023l-3.19637,0l0,0.00029zm-3.85653,-1.54014l3.85653,0l3.19613,0c0.62343,0 1.20725,0.13325 1.75146,0.40062c0.54133,0.26594 1.03393,0.66227 1.47707,1.18985l0.00048,0.00029l0.0012,0.00172l0.00144,0.00143c0.44291,0.52844 0.77563,1.11493 0.99912,1.76033c0.22469,0.64826 0.33632,1.34369 0.33632,2.08603l0,8.19828c0,0.74577 -0.11187,1.44292 -0.33632,2.09203c-0.22373,0.6474 -0.55741,1.23475 -1.00176,1.76405c-0.44387,0.52501 -0.93743,0.9222 -1.48044,1.18928c-0.54301,0.26708 -1.12587,0.40148 -1.74858,0.40148l-2.28511,0c-0.40066,0.60565 -0.83228,1.16755 -1.29439,1.68484c-0.54565,0.6108 -1.13259,1.16097 -1.7601,1.64966l-0.00096,-0.00229c-0.63183,0.49556 -1.30303,0.92878 -2.0148,1.29823c-0.71153,0.36945 -1.46675,0.67828 -2.26686,0.92534l0,-0.00029c-0.22685,0.06977 -0.47795,-0.01087 -0.64407,-0.2342c-0.2355,-0.31741 -0.21077,-0.80238 0.05569,-1.08291c0.37257,-0.39319 0.68849,-0.79066 0.94727,-1.19157c0.25086,-0.38861 0.45179,-0.7878 0.6023,-1.197l0.00024,0l0.00216,-0.00601c0.16684,-0.44294 0.31688,-0.89446 0.45011,-1.35256c0.04705,-0.16214 0.09242,-0.3257 0.13587,-0.49098l-2.1766,0c-0.62271,0 -1.20557,-0.13468 -1.74834,-0.40148c-0.54325,-0.26737 -1.03681,-0.66456 -1.48044,-1.18928c-0.44435,-0.5293 -0.77803,-1.11665 -1.00176,-1.76405c-0.22445,-0.64911 -0.33632,-1.34627 -0.33632,-2.09203l0,-8.19828c0,-0.74262 0.11187,-1.43806 0.33632,-2.08603c0.22349,-0.64482 0.55597,-1.2316 0.99888,-1.75976l0.00048,-0.00057l0.0012,-0.00143l0.0012,-0.00172c0.44339,-0.52758 0.93598,-0.92392 1.47756,-1.19014c0.54445,-0.26765 1.12827,-0.40091 1.75146,-0.40091l3.19637,0l0,0z"/>
  </g>
 </g>
</svg>