<svg width="20" height="20" xmlns="http://www.w3.org/2000/svg" data-name="Layer 1">
 <title>messenger-chat-bubble</title>

 <g>
  <title>Layer 1</title>
  <path transform="rotate(0.0391758 10.0962 10.0585)" stroke="#000" class="cls-1" d="m1.29824,0.7089l17.59586,0a0.57819,0.62199 0 0 1 0.57514,0.61871l0,12.66466a0.57819,0.62199 0 0 1 -0.57514,0.62035l-8.79793,0l-4.43939,3.54814c-1.46607,1.49836 -2.45311,1.8791 -2.31123,-0.16411l0,-3.38403l-2.04731,0a0.57819,0.62199 0 0 1 -0.57514,-0.62035l0,-12.66466a0.57819,0.62199 0 0 1 0.57514,-0.61871zm9.02371,5.63566a1.0862,1.16849 0 1 1 -1.0862,1.16685a1.08467,1.16685 0 0 1 1.0862,-1.16685zm4.14801,0a1.0862,1.16849 0 1 1 -1.08467,1.16685a1.08467,1.16685 0 0 1 1.08467,-1.16685zm-8.29755,0a1.0862,1.16849 0 1 1 -1.08467,1.16685a1.08467,1.16685 0 0 1 1.08467,-1.16685z" fill-rule="evenodd" id="svg_1"/>
 </g>
</svg>