<svg width="100" height="65" xmlns="http://www.w3.org/2000/svg" version="1.0" preserveAspectRatio="xMidYMid meet" stroke="#000">
 <g stroke="#000">
  <title stroke="#000">Layer 1</title>
  <g stroke="#000" fill="#000000" id="svg_1">
   <path stroke-width="0" filter="url(#svg_8_blur)" stroke="#000" d="m28.88149,0.56099c-0.39981,0.28168 -0.41889,0.39441 -0.42005,3.2505c-0.0011,2.70577 0.03685,2.98764 0.3793,3.36359c0.2283,0.24437 0.62793,0.41365 0.93246,0.41379c0.81843,0.00035 0.97092,-0.56328 0.97226,-3.85154c0.00096,-2.36755 -0.05591,-2.93127 -0.30324,-3.17565c-0.38051,-0.37597 -1.00861,-0.37624 -1.56072,-0.00068l0,0zm1.37031,0.18849c0.39954,0.39476 0.43541,5.80632 0.0355,6.31348c-0.34278,0.45081 -0.78054,0.43183 -1.25616,-0.07571c-0.34244,-0.37595 -0.3804,-0.65782 -0.37937,-3.17569c0.00108,-2.6494 0.02017,-2.79971 0.41997,-3.0626c0.53308,-0.37557 0.81858,-0.37545 1.18006,0.00051l0,0z" id="svg_2"/>
   <path stroke-width="0" filter="url(#svg_8_blur)" stroke="#000" d="m42.73679,2.6527c-0.64742,0.71374 -3.61836,5.05296 -3.61845,5.29723c-0.00014,0.35701 0.57069,0.75185 1.08458,0.77086c0.30453,0.00013 0.79961,-0.54457 2.05649,-2.23513c0.89506,-1.23976 1.75201,-2.348 1.90432,-2.46067c0.15232,-0.13146 0.2857,-0.48842 0.28581,-0.77027c0.00017,-0.41338 -0.11395,-0.60133 -0.49457,-0.73303c-0.64703,-0.24455 -0.87543,-0.22586 -1.21818,0.131l0,0zm1.02777,0.05682c0.26643,0.09407 0.49473,0.31965 0.49466,0.48876c-0.00017,0.41338 -3.44708,5.1094 -3.84683,5.24076c-0.39975,0.13136 -1.10384,-0.20717 -1.10371,-0.5266c0.00011,-0.28185 3.1805,-4.82767 3.59936,-5.14692c0.38078,-0.28169 0.28561,-0.28173 0.85652,-0.056l0,0z" id="svg_3"/>
   <path stroke-width="0" filter="url(#svg_8_blur)" stroke="#000" d="m14.94826,2.86613c-0.22858,0.45086 -0.2478,0.90182 -0.03847,0.99586c0.09516,0.01883 0.9512,1.12782 1.92136,2.44354c1.90227,2.57506 2.2638,2.81949 3.06352,2.03066c0.45698,-0.45076 0.4761,-0.67624 0.11463,-1.05219c-0.1522,-0.15039 -1.02727,-1.27817 -1.94036,-2.51871c-1.54084,-2.08637 -1.71207,-2.25555 -2.3021,-2.25581c-0.41873,-0.00018 -0.68524,0.11244 -0.81857,0.35666zm3.27276,2.33139c1.65498,2.23674 1.80713,2.51865 1.59763,2.85678c-0.13332,0.20663 -0.45696,0.39439 -0.7044,0.43187c-0.39971,0.03741 -0.74216,-0.31975 -2.32104,-2.4813c-1.61693,-2.19914 -1.82613,-2.59382 -1.6547,-2.93197c0.13333,-0.24421 0.39985,-0.37563 0.72341,-0.37549c0.43776,0.01898 0.78021,0.37614 2.3591,2.5001l0,0z" id="svg_4"/>
   <path filter="url(#svg_8_blur)" stroke="#000" stroke-width="0" d="m26.65022,11.36432c-3.0074,0.39329 -6.45293,1.68831 -9.13733,3.45341c-3.94091,2.57253 -7.33063,7.0431 -8.60759,11.30789l-0.34308,1.18363l-0.81843,-0.00035c-0.87553,-0.00038 -1.40855,0.22487 -2.7793,1.1262c-1.77057,1.18301 -2.30394,2.2726 -2.17157,4.39593c0.1892,2.78101 2.01562,4.6796 4.79434,4.98145l0.95161,0.11315l0.68446,1.80414c1.40696,3.68346 3.59455,6.70961 6.63884,9.21001c2.53056,2.08679 2.47348,2.04919 2.68285,2.04928c0.30453,0.00013 2.54998,1.1473 2.70215,1.39164c0.07609,0.11277 0.20928,0.20678 0.28541,0.20681c0.41872,0.01897 1.9602,0.54576 1.96014,0.67729c-0.00003,0.07516 -0.64738,0.61979 -1.42798,1.20195c-2.62737,1.95303 -3.99852,3.81265 -4.87516,6.57441c-0.47643,1.48421 -0.45773,2.29219 0.0749,3.04402l0.41848,0.62025l12.1051,0.00525l12.08607,0.00524l0.34313,-1.31516c0.49563,-1.89758 0.13458,-3.32578 -1.33023,-5.14906c-2.0926,-2.59394 -2.64433,-3.15788 -3.88113,-4.02276l-1.35097,-0.94009l0.72335,-0.22517c0.97082,-0.31901 4.07389,-1.9524 5.48272,-2.8725c0.62827,-0.4319 1.46595,-0.97645 1.84672,-1.23934c1.97997,-1.27687 5.27472,-6.21723 6.43714,-9.6553l0.43827,-1.25874l0.78036,0.00034c1.57975,0.00068 3.71205,-1.42644 4.77863,-3.21103c0.85709,-1.46525 0.91472,-2.78053 0.17301,-4.2089c-0.93189,-1.80425 -3.08204,-3.2896 -4.77599,-3.29033l-0.91359,-0.0004l-0.34212,-1.18392c-0.91236,-3.0256 -2.89051,-6.23956 -5.40189,-8.70214c-1.38886,-1.37228 -1.52202,-1.56024 -1.25545,-1.82318c0.45698,-0.45076 0.13361,-0.93945 -1.0462,-1.54124c-0.91339,-0.48894 -1.17975,-0.75211 -1.65521,-1.65424c-0.7227,-1.37199 -1.21754,-1.42857 -1.96031,-0.26391l-0.51422,0.80775l-1.88403,-0.62089c-3.15907,-1.0724 -6.52781,-1.39329 -9.91589,-0.98138l0,0zm14.10308,1.24626c0.45644,0.88333 0.7228,1.14651 1.59813,1.61664c0.57087,0.31968 1.10366,0.65813 1.17975,0.75211c0.19021,0.30072 -0.03835,0.69522 -0.39998,0.69506c-0.64713,-0.00028 -2.05611,1.29562 -2.4562,2.25374c-0.47629,1.1272 -0.91404,1.10822 -1.57973,-0.05705c-0.53255,-0.93973 -0.95112,-1.33451 -2.0358,-1.84231c-0.43767,-0.22567 -0.85629,-0.48891 -0.91336,-0.58289c-0.15217,-0.22555 0.74271,-1.01434 1.58032,-1.38978c0.39977,-0.16894 0.76155,-0.54458 1.02823,-1.07059c0.47621,-0.9393 0.91418,-1.44644 1.21871,-1.44631c0.13323,0.00006 0.47564,0.46996 0.77993,1.07137l0,0zm-8.37432,-0.68007c1.46547,0.20733 4.11081,0.88492 5.2526,1.37395l0.62799,0.26333l-0.53301,0.20646c-0.79952,0.31909 -1.84671,1.20176 -1.84685,1.55877c-0.00008,0.20669 0.36142,0.50749 0.91326,0.80837c1.17981,0.62058 1.57936,0.97777 2.13094,1.91751c0.24725,0.45107 0.57067,0.80822 0.7039,0.80828c0.30453,0.00013 0.30438,0.37593 -0.03879,1.78504c-0.66726,2.70548 -0.34389,3.17537 3.10053,4.6237c4.28174,1.78691 4.31978,1.8433 4.29895,6.27775c-0.02008,2.57423 -0.09661,3.55128 -0.43982,5.07313c-0.83896,3.68249 -0.72521,4.79115 0.66377,5.88158c0.70401,0.54522 0.72305,0.50765 -0.8004,2.47994c-2.81841,3.68163 -6.81644,6.31051 -11.49911,7.56741c-8.47069,2.28872 -17.98583,-1.28552 -22.91246,-8.59699l-0.62771,-0.93978l0.70443,-0.50703c1.16136,-0.82626 1.61883,-2.49838 1.14366,-4.11453c-0.51321,-1.69133 -0.79789,-3.70199 -0.892,-6.29506c-0.16942,-4.62243 0.02104,-4.94178 4.13295,-6.76263c1.52293,-0.67578 2.91265,-1.40799 3.10306,-1.6146c0.49511,-0.61986 0.59055,-1.27747 0.34358,-2.42377c-0.47496,-2.14227 -0.60763,-3.5328 -0.49282,-5.03595c0.05745,-0.86432 0.17199,-1.69103 0.22915,-1.84133c0.2477,-0.65754 3.80743,-1.95252 6.60549,-2.40227c1.92248,-0.3186 4.22551,-0.35518 6.12872,-0.09129l0,0zm-23.98833,16.0739c-0.57212,2.76189 -0.63009,4.92272 -0.21247,7.64747c0.15185,1.03352 0.28473,1.89792 0.28471,1.9355c-0.00009,0.22548 -1.50361,-0.01944 -2.41704,-0.41443c-1.86492,-0.80878 -3.10132,-2.68832 -3.10051,-4.68007c0.00074,-1.82264 0.57212,-2.76189 2.47595,-4.03879c1.27557,-0.86379 1.42786,-0.92009 2.34146,-0.93849c0.70424,-0.01848 0.72326,0.00031 0.6279,0.48881l0,0zm44.68994,-0.09337c1.96005,0.90277 3.27265,2.61324 3.48124,4.51113c0.09476,0.99591 0.05663,1.14622 -0.57188,2.1794c-0.81896,1.31495 -1.21882,1.70937 -2.68472,2.57308c-0.81863,0.48819 -1.37066,0.67585 -1.92263,0.67561l-0.79939,-0.00035l0.26694,-1.18366c0.55297,-2.48005 0.51646,-6.31324 -0.07259,-8.73741c-0.09501,-0.37584 -0.0379,-0.4134 0.68536,-0.41308c0.43776,0.00019 1.16096,0.16961 1.61766,0.39529l0,0zm-26.80912,25.61803c2.41707,0.35806 4.18715,0.35883 6.69969,-0.01589c1.67502,-0.24354 2.09375,-0.24336 2.49336,-0.0365c0.26641,0.13165 0.53281,0.28208 0.58989,0.33848c0.05708,0.05639 0.55179,0.43241 1.10359,0.82724c1.00846,0.73325 3.27241,3.19573 3.27226,3.57153c-0.00005,0.11274 0.17117,0.31951 0.38048,0.45113c0.20931,0.13162 0.3805,0.39476 0.38041,0.62024c-0.00008,0.20669 0.076,0.33825 0.15215,0.28192c0.07615,-0.03755 0.17125,0.1316 0.19018,0.37588c0.01893,0.26307 0.17101,0.7141 0.32315,1.0148c0.17117,0.31951 0.2472,0.56381 0.17107,0.56378c-0.07613,-0.00003 -0.01908,0.11273 0.09506,0.2631c0.24731,0.30075 -0.01971,1.67231 -0.40057,2.14189c-0.15233,0.16904 -2.817,0.22426 -12.16229,0.22021l-11.95283,-0.00518l-0.28533,-0.4135c-0.51361,-0.71425 -0.30373,-1.97309 0.70598,-4.30262c0.45721,-1.01447 1.90447,-2.83647 3.08492,-3.81305c1.25662,-1.07049 2.98917,-2.36625 3.16047,-2.36618c0.0571,0.00002 0.95161,0.13194 1.99837,0.28272l0,0z" id="svg_5"/>
   <path stroke-width="0" filter="url(#svg_8_blur)" stroke="#000" d="m19.31369,32.93213c-0.09525,0.20665 -0.19068,0.86426 -0.19093,1.48433c-0.00056,1.37167 0.43698,1.91678 1.2936,1.61651c0.49493,-0.1689 0.514,-0.24405 0.57163,-1.55933c0.03841,-0.84554 -0.03747,-1.46564 -0.17064,-1.63481c-0.3234,-0.39473 -1.25605,-0.33877 -1.50366,0.0933l0,0z" id="svg_6"/>
   <path stroke-width="0" filter="url(#svg_8_blur)" stroke="#000" d="m38.15653,32.9403c-0.09525,0.20665 -0.19069,0.88305 -0.19094,1.50312c-0.00048,1.18377 0.2848,1.71002 0.95096,1.71031c0.66616,0.00029 0.95187,-0.52571 0.95235,-1.70948c0.00058,-1.42804 -0.22764,-1.86032 -0.9509,-1.86063c-0.36163,-0.00016 -0.62815,0.13126 -0.76147,0.35668z" id="svg_7"/>
   <path stroke-width="0" stroke="#000" d="m26.5073,35.22764c-0.39979,0.22531 -0.45725,1.10842 -0.11479,1.44679c0.1522,0.15039 1.12287,0.22597 3.14038,0.22684c2.89304,0.00125 2.91208,0.00126 3.2168,-0.46836c0.28567,-0.43205 0.2857,-0.50721 0.00038,-0.9395c-0.30434,-0.46988 -0.34241,-0.4699 -3.12125,-0.4711c-1.54169,-0.00067 -2.95018,0.09267 -3.12152,0.20534z" id="svg_8"/>
  </g>
  <text fill="#000000" stroke="#000" stroke-width="0" x="57.53747" y="29.97929" id="svg_21" font-size="10" font-family="'Special Elite'" text-anchor="start" xml:space="preserve">Calvicia</text>
  <text fill="#000000" stroke="#000" stroke-width="0" x="64.80375" y="41.07101" id="svg_22" font-size="10" font-family="'Special Elite'" text-anchor="start" xml:space="preserve">Connect</text>
 </g>
 <defs>
  <filter id="svg_8_blur">
   <feGaussianBlur stdDeviation="0.1" in="SourceGraphic"/>
  </filter>
 </defs>
</svg>