<svg width="28" height="28" xmlns="http://www.w3.org/2000/svg" xml:space="preserve" enable-background="new 0 0 122.88 86.411" version="1.1">

 <g>
  <title>Layer 1</title>
  <g stroke="#000" id="svg_1">
   <path stroke="#000" id="svg_2" d="m18.94915,2.79703l5.7422,0c1.75023,0 3.18189,2.03998 3.18189,4.53319l0,8.00029c0,2.49288 -1.43211,4.53319 -3.18189,4.53319l-2.47215,0c0.35374,1.99341 0.78212,3.78413 2.09045,5.4377c-2.50214,-0.91158 -4.43341,-2.75467 -5.8511,-5.4377l-0.42724,0c-0.16616,0 -0.34022,-0.01863 -0.51923,-0.05396c0.94535,-1.09082 1.60211,-2.46012 1.60211,-3.94281l0,-3.3338c0.20877,0.20686 0.46242,0.32795 0.7359,0.32795c0.71335,0 1.29188,-0.82422 1.29188,-1.84019s-0.57853,-1.84019 -1.29188,-1.84019c-0.27348,0 -0.52712,0.12109 -0.7359,0.32763l0,-4.99187c0.00023,-0.59487 -0.05772,-1.17144 -0.16504,-1.71942l0,0zm-5.9167,6.64865c-0.72169,0 -1.30676,0.83385 -1.30676,1.86171s0.58529,1.86171 1.30676,1.86171c0.72147,0 1.30676,-0.83385 1.30676,-1.86171s-0.58529,-1.86171 -1.30676,-1.86171l0,0zm-8.01888,0c-0.72169,0 -1.30676,0.83385 -1.30676,1.86171s0.58529,1.86171 1.30676,1.86171s1.30676,-0.83385 1.30676,-1.86171s-0.58506,-1.86171 -1.30676,-1.86171l0,0zm4.00933,0c-0.72169,0 -1.30676,0.83385 -1.30676,1.86171s0.58506,1.86171 1.30676,1.86171s1.30676,-0.83385 1.30676,-1.86171s-0.58506,-1.86171 -1.30676,-1.86171l0,0zm4.44807,-8.12941l-8.89614,0c-1.98065,0 -3.6008,2.30851 -3.6008,5.12999l0,9.05288c0,2.82116 1.62059,5.12999 3.6008,5.12999l2.79726,0c-0.40019,2.25551 -0.8847,4.28232 -2.36573,6.15303c2.83131,-1.03139 5.0169,-3.11699 6.62104,-6.15303l0.48361,0c1.9802,0 4.96053,-2.30851 4.96053,-5.12999l0,-9.0532c0.00023,-2.82116 -1.62014,-5.12967 -3.60057,-5.12967l0,0zm-8.89614,-1.14735l8.89614,0l0.00113,0l0,0.0045c1.21432,0.00064 2.31546,0.70441 3.11133,1.83859l-0.0018,0.00225c0.79722,1.13675 1.2921,2.7052 1.29233,4.43136l0.00316,0l0,0.00064l-0.00316,0l0,9.05288l0.00316,0l0,0.00096l-0.00316,0c-0.00045,1.84565 -0.90048,3.45361 -2.09947,4.57655c-1.11647,1.04585 -2.52626,1.69501 -3.66302,1.69501l0,0.00482l-0.00045,0l0,-0.00482l-0.09109,0c-0.80308,1.42487 -1.73513,2.64192 -2.80245,3.64023c-1.18027,1.10431 -2.51544,1.93623 -4.01293,2.48196l-0.00068,-0.00385c-0.28182,0.10118 -0.5925,-0.01927 -0.79835,-0.35044c-0.29355,-0.47282 -0.26266,-1.19521 0.06922,-1.61342c0.65293,-0.82454 1.08581,-1.6828 1.39942,-2.58282c0.1745,-0.50076 0.31519,-1.02401 0.43716,-1.56685l-1.73648,0l-0.00113,0l0,-0.00482c-1.21387,-0.00032 -2.31523,-0.70441 -3.1111,-1.83826c-0.79609,-1.13418 -1.29052,-2.70359 -1.29075,-4.43393l-0.00293,0l0,-0.00064l0.00316,0l0,-9.05288l-0.00316,0l0,-0.00161l0.00316,0c0.00023,-1.69404 0.47617,-3.23487 1.24611,-4.36359c0.01398,-0.02345 0.02863,-0.04657 0.04419,-0.06874c0.79609,-1.13418 1.89768,-1.83859 3.11223,-1.83891l0,-0.00418l0.00023,0l0,0zm19.39573,9.01177c-0.71312,0 -1.29165,0.82422 -1.29165,1.84019s0.57853,1.84019 1.29165,1.84019c0.71335,0 1.29188,-0.82422 1.29188,-1.84019s-0.57853,-1.84019 -1.29188,-1.84019l0,0z" clip-rule="evenodd" fill-rule="evenodd"/>
  </g>
 </g>
</svg>