<svg width="20" height="20" xmlns="http://www.w3.org/2000/svg" version="1.1" enable-background="new 0 0 96.165 122.88" xml:space="preserve">
 <g>
  <title>Layer 1</title>
  <g stroke="#000" stroke-width="0" id="svg_1">
   <path stroke="#000" d="m13.0117,17.89064l4.38887,-3.64382l-4.38887,0l0,3.64382l0,0zm-3.37481,-13.58569c0,-0.08296 0.04209,-0.1577 0.11115,-0.21226c0.06722,-0.05311 0.16162,-0.08619 0.26562,-0.08797l0.00327,0c0.10502,0 0.19942,0.03325 0.26766,0.08797c0.06824,0.05311 0.11013,0.12767 0.11217,0.20983l0,1.00574l1.27151,0.00081c0.10502,0 0.19942,0.03325 0.26766,0.08716c0.06845,0.05375 0.11033,0.12767 0.11238,0.21064l0,0.00242c0,0.08215 -0.04189,0.15689 -0.11115,0.21161c-0.06722,0.05311 -0.16182,0.087 -0.26582,0.08781l-1.27436,0.00081l0,1.00332c0,0.08296 -0.04189,0.15754 -0.11115,0.21226c-0.06722,0.05311 -0.16162,0.08716 -0.26562,0.08797l-0.00307,0c-0.104,0 -0.19942,-0.03325 -0.26766,-0.08716s-0.11033,-0.12848 -0.11136,-0.21064l-0.00102,-1.00574l-1.2713,0c-0.10379,0 -0.19942,-0.03406 -0.26766,-0.08797c-0.06824,-0.05375 -0.11033,-0.12848 -0.11115,-0.21064l0,-0.00178c-0.00102,-0.08296 0.04189,-0.15754 0.11013,-0.21226c0.06722,-0.05311 0.16182,-0.087 0.26664,-0.08781l1.27335,-0.00081l0,-1.00332l-0.00021,0l0,0.00001zm0.38004,-1.90818c0.2644,0 0.52491,0.02066 0.77561,0.05972c0.25826,0.04067 0.50692,0.10104 0.74517,0.1782c0.24355,0.07974 0.47465,0.17755 0.6898,0.29199c0.21719,0.11428 0.41989,0.24551 0.60337,0.39142c0.18471,0.14494 0.35082,0.30523 0.49569,0.4768c0.14364,0.16996 0.26766,0.35252 0.3684,0.54411c0.09869,0.1882 0.17531,0.3856 0.22557,0.58866c0.05047,0.19886 0.07683,0.40384 0.07683,0.61368c0,0.20903 -0.02636,0.41466 -0.07683,0.61287c-0.05026,0.20402 -0.12688,0.40143 -0.22557,0.58866l-0.00102,0.00259c-0.10073,0.19079 -0.22373,0.37237 -0.36635,0.54137c-0.14588,0.17238 -0.31262,0.33251 -0.49671,0.47761c-0.18348,0.14511 -0.38617,0.27617 -0.60337,0.39158c-0.21516,0.11347 -0.44625,0.21145 -0.6898,0.29102l-0.00204,0.00081c-0.23722,0.07715 -0.48609,0.13768 -0.74333,0.17755c-0.25091,0.03987 -0.51122,0.06053 -0.77561,0.06053c-0.26562,0 -0.52491,-0.02066 -0.77684,-0.06053c-0.25724,-0.03987 -0.5059,-0.10039 -0.74415,-0.17836c-0.24355,-0.07958 -0.47465,-0.17755 -0.68959,-0.29102c-0.21719,-0.11525 -0.41989,-0.24631 -0.60357,-0.39158c-0.18369,-0.14511 -0.35062,-0.30523 -0.49651,-0.47761c-0.14282,-0.16996 -0.26664,-0.35235 -0.36737,-0.54395c-0.09869,-0.18739 -0.17531,-0.3848 -0.22557,-0.58866c-0.05047,-0.19821 -0.07662,-0.40384 -0.07662,-0.61287c0,-0.20983 0.02636,-0.41466 0.07662,-0.61368c0.05047,-0.20321 0.12709,-0.40046 0.22557,-0.58866c0.10073,-0.19159 0.22455,-0.37399 0.3684,-0.54411c0.14486,-0.17158 0.31078,-0.3317 0.49549,-0.4768c0.18369,-0.14591 0.38637,-0.27698 0.60357,-0.39142c0.21516,-0.11444 0.44625,-0.21226 0.68959,-0.29199l0.00204,-0.00081c0.23722,-0.07715 0.48609,-0.13687 0.74313,-0.17755c0.25091,-0.03874 0.5104,-0.05956 0.77602,-0.05956l0,0l-0.00001,-0.00001zm2.20097,1.40556c-0.14364,-0.11428 -0.30321,-0.21726 -0.47321,-0.30668c-0.16795,-0.08959 -0.34858,-0.16593 -0.53635,-0.22727c-0.18471,-0.06053 -0.38004,-0.10783 -0.58273,-0.1393c-0.19635,-0.02986 -0.40006,-0.04649 -0.60889,-0.04649c-0.20882,0 -0.41253,0.01662 -0.60991,0.04649c-0.20147,0.03147 -0.3968,0.07877 -0.58171,0.1393c-0.18778,0.06134 -0.3684,0.13768 -0.53635,0.22727c-0.1702,0.08942 -0.32957,0.1924 -0.47342,0.30668c-0.14385,0.11363 -0.27502,0.23969 -0.38842,0.37399c-0.1134,0.13268 -0.20984,0.2752 -0.28769,0.4237c-0.07662,0.14591 -0.13547,0.30022 -0.17633,0.46018c-0.0378,0.15511 -0.05885,0.31604 -0.05885,0.481c0,0.16432 0.02105,0.32508 0.05885,0.48019c0.04086,0.16012 0.09971,0.31427 0.17633,0.46034c0.07764,0.14931 0.17429,0.29102 0.28769,0.4237c0.1134,0.1351 0.24457,0.26035 0.38842,0.37399c0.14385,0.11444 0.30321,0.21726 0.47342,0.30764c0.16795,0.08878 0.34858,0.16496 0.53635,0.2263c0.18471,0.06053 0.38004,0.10783 0.58171,0.1393c0.19738,0.03066 0.40088,0.04649 0.60991,0.04649c0.20882,0 0.41253,-0.01565 0.60991,-0.04649c0.20147,-0.03147 0.3968,-0.07877 0.58171,-0.1393l0.00204,-0.00064c0.18798,-0.0615 0.36635,-0.13687 0.5343,-0.22549c0.17,-0.09039 0.32957,-0.19321 0.47321,-0.30764c0.14385,-0.11363 0.27523,-0.23873 0.38842,-0.37399c0.1134,-0.13268 0.20984,-0.27456 0.28748,-0.4237c0.07683,-0.14591 0.13547,-0.30022 0.17633,-0.46034c0.0378,-0.15511 0.05885,-0.31588 0.05885,-0.48019c0,-0.16496 -0.02125,-0.32588 -0.05885,-0.481c-0.04086,-0.15996 -0.0995,-0.31427 -0.17633,-0.46018c-0.07764,-0.1485 -0.17429,-0.29102 -0.28748,-0.4237c-0.11319,-0.1343 -0.24437,-0.26035 -0.38842,-0.37415l0,0zm-8.15721,10.81509l3.92914,0l0,0.89308l-3.92914,0l0,-0.89308l0,0zm0,-2.26635l5.5762,0l0,0.89227l-5.5762,0l0,-0.89227l0,0zm0,-2.26635l11.91247,0l0,0.89227l-11.91247,0l0,-0.89227l0,0zm15.78052,3.69693c0,0.26294 -0.22476,0.49101 -0.53124,0.55638l-6.46418,5.36945c-0.13526,0.13187 -0.33999,0.21306 -0.56475,0.21306l-10.77541,0c-0.36512,0 -0.69184,-0.11702 -0.92906,-0.30345c-0.23702,-0.18739 -0.38413,-0.4463 -0.38413,-0.73393l0,-17.75925c0,-0.28844 0.14711,-0.54637 0.38413,-0.73393c0.23722,-0.18724 0.57006,-0.30345 0.92906,-0.30345l17.02261,0c0.359,0 0.69163,0.11621 0.92886,0.30345c0.23722,0.18739 0.38433,0.44533 0.38433,0.73393l0,12.65774l-0.00021,0zm-1.46766,-0.69326l0,-11.84246l-16.71367,0l0,17.52037l9.88517,0l0,-5.0957c0,-0.31927 0.32651,-0.58204 0.73598,-0.58204l6.09252,0l0,-0.00016z" id="svg_2"/>
  </g>
 </g>

</svg>