<svg width="30" height="30" xmlns="http://www.w3.org/2000/svg" xml:space="preserve" version="1.1">

 <g>
  <title>Layer 1</title>
  <g transform="rotate(0.0663787 14.9363 14.9603)" stroke="#000" id="svg_1">
   <path stroke="#000" id="svg_2" d="m5.76591,0.23806l18.34074,0c1.48005,0 2.82511,0.62956 3.80076,1.64031c0.97328,1.01075 1.57951,2.40759 1.57951,3.94707l0,18.26967c0,1.53702 -0.60623,2.93387 -1.57951,3.94707l-0.07578,0.07132c-0.96854,0.96894 -2.28282,1.56899 -3.72498,1.56899l-18.34074,0c-1.48005,0 -2.82511,-0.62956 -3.80076,-1.64031l-0.07104,-0.0787c-0.93302,-1.00829 -1.50846,-2.37316 -1.50846,-3.86838l0,-18.27213c0,-1.53702 0.60386,-2.93387 1.57951,-3.94707c0.97328,-1.01075 2.31835,-1.63785 3.80076,-1.63785l0,0zm7.75545,9.42871c0,-0.81155 0.63228,-1.46816 1.41374,-1.46816c0.78146,0 1.41374,0.65662 1.41374,1.46816l0,3.82411l3.68236,0c0.78146,0 1.41374,0.65662 1.41374,1.46816c0,0.81155 -0.63228,1.46816 -1.41374,1.46816l-3.68236,0l0,3.82411c0,0.81155 -0.63228,1.46816 -1.41374,1.46816c-0.78146,0 -1.41374,-0.65662 -1.41374,-1.46816l0,-3.82411l-3.68473,0c-0.78146,0 -1.41374,-0.65662 -1.41374,-1.46816c0,-0.81155 0.63228,-1.46816 1.41374,-1.46816l3.68236,0l0,-3.82411l0.00237,0zm10.58293,-6.91045l-18.33838,0c-0.81225,0 -1.54872,0.34675 -2.08627,0.90254c-0.53519,0.55579 -0.86908,1.32307 -0.86908,2.16659l0,18.26967c0,0.81893 0.31022,1.56162 0.81225,2.11248l0.05683,0.0541c0.53519,0.55579 1.27402,0.90254 2.08627,0.90254l18.34074,0c0.7862,0 1.50373,-0.32216 2.03418,-0.84598l0.04973,-0.05656c0.53519,-0.55579 0.86908,-1.32307 0.86908,-2.16659l0,-18.27213c0,-0.84106 -0.3339,-1.60834 -0.86908,-2.16659c-0.53519,-0.55333 -1.27402,-0.90008 -2.08627,-0.90008l0,0z"/>
  </g>
 </g>
</svg>